<svg xmlns="http://www.w3.org/2000/svg" version="1.1" xmlns:xlink="http://www.w3.org/1999/xlink" xmlns:svgjs="http://svgjs.dev/svgjs" width="1000" height="1000" viewBox="0 0 1000 1000"><rect width="1000" height="1000" fill="#ffffff"></rect><g transform="matrix(0.7,0,0,0.7,149.57577041501332,384.13921901675013)"><svg viewBox="0 0 396 131" data-background-color="#6936f5" preserveAspectRatio="xMidYMid meet" height="330" width="1000" xmlns="http://www.w3.org/2000/svg" xmlns:xlink="http://www.w3.org/1999/xlink"><g id="tight-bounds" transform="matrix(1,0,0,1,0.2399927366495831,0.20459873941874207)"><svg viewBox="0 0 395.52 130.59057063642214" height="130.59057063642214" width="395.52"><g><svg viewBox="0 0 632.0224775908304 208.6776294590207" height="130.59057063642214" width="395.52"><g transform="matrix(1,0,0,1,236.50247759083035,61.70989533424515)"><svg viewBox="0 0 395.52 85.2578387905304" height="85.2578387905304" width="395.52"><g id="textblocktransform"><svg viewBox="0 0 395.52 85.2578387905304" height="85.2578387905304" width="395.52" id="textblock"><g><svg viewBox="0 0 395.52 58.93197133933492" height="58.93197133933492" width="395.52"><g transform="matrix(1,0,0,1,0,0)"><svg width="395.52" viewBox="5.699999809265137 -35.29999923706055 273.6399841308594 40.54999923706055" height="58.93197133933492" data-palette-color="#ffffff"><g class="wordmark-text-0" data-fill-palette-color="primary" id="text-0"><path d="M43.15-35.3Q49.15-35.3 52.5-31.85 55.85-28.4 55.85-21.85L55.85-21.85 55.85 0 52.2 0 52.2-21.75Q52.2-26.85 49.63-29.43 47.05-32 42.6-32L42.6-32Q37.9-32 35.25-29.28 32.6-26.55 32.6-20.95L32.6-20.95 32.6 0 28.95 0 28.95-21.75Q28.95-26.85 26.45-29.43 23.95-32 19.5-32L19.5-32Q14.75-32 12.08-29.28 9.4-26.55 9.4-20.95L9.4-20.95 9.4 0 5.7 0 5.7-35 9.25-35 9.25-29.15Q10.7-32.15 13.55-33.73 16.4-35.3 20.3-35.3L20.3-35.3Q24.4-35.3 27.33-33.58 30.25-31.85 31.55-28.75L31.55-28.75Q33.05-31.95 36.08-33.63 39.1-35.3 43.15-35.3L43.15-35.3ZM92.15 0L77.85-16.45 70.7-9.2 70.7 0 67 0 67-35 70.7-35 70.7-13.85 91.25-35 95.5-35 80.35-19.15 96.55 0 92.15 0ZM126.15-6.8L127.55-4Q125.4-1.95 121.82-0.83 118.25 0.3 113.9 0.3L113.9 0.3Q109.3 0.3 106.07-0.95 102.85-2.2 101.22-4.4 99.6-6.6 99.6-9.45L99.6-9.45Q99.6-12.6 101.47-14.8 103.35-17 106.4-17.85L106.4-17.85Q103.9-18.8 102.5-20.88 101.1-22.95 101.1-25.75L101.1-25.75Q101.1-28.4 102.62-30.58 104.15-32.75 107.22-34.02 110.3-35.3 114.65-35.3L114.65-35.3Q117.85-35.3 120.87-34.58 123.9-33.85 126.05-32.5L126.05-32.5 124.9-29.55Q120.3-32.15 114.8-32.15L114.8-32.15Q109.95-32.15 107.37-30.3 104.8-28.45 104.8-25.5L104.8-25.5Q104.8-22.55 106.87-20.95 108.95-19.35 112.75-19.35L112.75-19.35 121.45-19.35 121.45-16.15 112.6-16.15Q108.3-16.15 105.8-14.53 103.3-12.9 103.3-9.7L103.3-9.7Q103.3-6.55 106.02-4.7 108.75-2.85 114.05-2.85L114.05-2.85Q117.75-2.85 120.95-3.9 124.15-4.95 126.15-6.8L126.15-6.8ZM158.84-35L162.54-35 162.54-10.15Q162.54-2.65 158.64 1.3 154.74 5.25 147.84 5.25L147.84 5.25Q143.54 5.25 140.12 3.88 136.69 2.5 134.39-0.1L134.39-0.1 136.09-2.95Q140.54 1.95 147.84 1.95L147.84 1.95Q153.24 1.95 156.04-1.05 158.84-4.05 158.84-10.05L158.84-10.05 158.84-14.75Q155.44-8.8 147.49-8.8L147.49-8.8Q140.99-8.8 137.34-12.53 133.69-16.25 133.69-23.25L133.69-23.25 133.69-35 137.39-35 137.39-23.4Q137.39-17.85 140.14-14.98 142.89-12.1 147.84-12.1L147.84-12.1Q153.04-12.1 155.94-15.13 158.84-18.15 158.84-24.2L158.84-24.2 158.84-35ZM186.74-35Q193.44-35 197.24-31.8 201.04-28.6 201.04-23L201.04-23Q201.04-17.4 197.24-14.23 193.44-11.05 186.74-11.05L186.74-11.05 177.34-11.05 177.34 0 173.64 0 173.64-35 186.74-35ZM186.64-14.3Q191.84-14.3 194.59-16.57 197.34-18.85 197.34-23L197.34-23Q197.34-27.25 194.59-29.53 191.84-31.8 186.64-31.8L186.64-31.8 177.34-31.8 177.34-14.3 186.64-14.3ZM237.49 0L233.44 0 225.44-11.25Q224.09-11.1 222.64-11.1L222.64-11.1 213.24-11.1 213.24 0 209.54 0 209.54-35 222.64-35Q229.34-35 233.14-31.8 236.94-28.6 236.94-23L236.94-23Q236.94-18.9 234.86-16.07 232.79-13.25 228.94-12L228.94-12 237.49 0ZM222.54-14.25Q227.74-14.25 230.49-16.55 233.24-18.85 233.24-23L233.24-23Q233.24-27.25 230.49-29.53 227.74-31.8 222.54-31.8L222.54-31.8 213.24-31.8 213.24-14.25 222.54-14.25ZM260.99 0.3Q255.79 0.3 251.56-2.02 247.34-4.35 244.96-8.4 242.59-12.45 242.59-17.5L242.59-17.5Q242.59-22.55 244.96-26.6 247.34-30.65 251.56-32.98 255.79-35.3 260.99-35.3L260.99-35.3Q266.19-35.3 270.36-33 274.54-30.7 276.94-26.63 279.34-22.55 279.34-17.5L279.34-17.5Q279.34-12.45 276.94-8.38 274.54-4.3 270.36-2 266.19 0.3 260.99 0.3L260.99 0.3ZM260.99-3Q265.14-3 268.49-4.88 271.84-6.75 273.74-10.08 275.64-13.4 275.64-17.5L275.64-17.5Q275.64-21.6 273.74-24.93 271.84-28.25 268.49-30.13 265.14-32 260.99-32L260.99-32Q256.84-32 253.46-30.13 250.09-28.25 248.16-24.93 246.24-21.6 246.24-17.5L246.24-17.5Q246.24-13.4 248.16-10.08 250.09-6.75 253.46-4.88 256.84-3 260.99-3L260.99-3Z" fill="#000000" data-fill-palette-color="primary"></path></g></svg></g></svg></g><g transform="matrix(1,0,0,1,0,72.84439540523975)"><svg viewBox="0 0 232.20979199999996 12.413443385290638" height="12.413443385290638" width="232.20979199999996"><g transform="matrix(1,0,0,1,0,0)"><svg width="232.20979199999996" viewBox="3.950000047683716 -36.5 888.4599609375 47.5" height="12.413443385290638" data-palette-color="#ffffff"><path d="M22.8 0L3.95 0 3.95-35 22.6-35Q25.35-35 27.35-33.8 29.35-32.6 30.48-30.63 31.6-28.65 31.6-26.2L31.6-26.2Q31.6-24.45 30.83-22.78 30.05-21.1 28.7-19.85 27.35-18.6 25.5-18.05L25.5-18.05Q27.6-17.6 29.18-16.3 30.75-15 31.6-13.2 32.45-11.4 32.45-9.35L32.45-9.35Q32.45-6.85 31.33-4.7 30.2-2.55 28.03-1.28 25.85 0 22.8 0L22.8 0ZM7.55-16.25L7.55-3.25 22.15-3.25Q24.3-3.25 25.8-4.17 27.3-5.1 28.08-6.63 28.85-8.15 28.85-9.85L28.85-9.85Q28.85-11.5 28.03-12.98 27.2-14.45 25.68-15.35 24.15-16.25 21.9-16.25L21.9-16.25 7.55-16.25ZM7.55-31.8L7.55-19.4 21.2-19.4Q23.25-19.4 24.78-20.3 26.3-21.2 27.13-22.63 27.95-24.05 27.95-25.7L27.95-25.7Q27.95-27.3 27.2-28.7 26.45-30.1 25.03-30.95 23.6-31.8 21.65-31.8L21.65-31.8 7.55-31.8ZM49.35 0.65L49.35 0.65Q45.5 0.65 42.75-1.15 40-2.95 38.55-5.98 37.1-9 37.1-12.75L37.1-12.75Q37.1-16.55 38.7-19.58 40.3-22.6 43.27-24.35 46.25-26.1 50.35-26.1L50.35-26.1Q54.3-26.1 57.17-24.35 60.05-22.6 61.62-19.65 63.2-16.7 63.2-13L63.2-13 63.2 0 59.75 0 59.75-5.7 59.6-5.7Q58.9-4.2 57.5-2.73 56.1-1.25 54.07-0.3 52.05 0.65 49.35 0.65ZM50.1-2.35L50.1-2.35Q52.9-2.35 55.05-3.73 57.2-5.1 58.45-7.48 59.7-9.85 59.65-12.85L59.65-12.85Q59.65-15.8 58.5-18.1 57.35-20.4 55.25-21.75 53.15-23.1 50.25-23.1L50.25-23.1Q47.25-23.1 45.1-21.73 42.95-20.35 41.8-17.98 40.65-15.6 40.65-12.6L40.65-12.6Q40.65-9.8 41.75-7.45 42.85-5.1 44.97-3.73 47.1-2.35 50.1-2.35ZM82.95 0L70.35 0 70.35-3.05 82.35-3.05Q83.9-3.05 84.95-3.7 86-4.35 86.57-5.4 87.15-6.45 87.15-7.55L87.15-7.55Q87.15-8.65 86.65-9.58 86.15-10.5 85.2-11.1 84.25-11.7 82.8-11.7L82.8-11.7 77.45-11.7Q75-11.7 73.22-12.53 71.45-13.35 70.52-14.9 69.6-16.45 69.6-18.5L69.6-18.5Q69.6-20.35 70.5-21.95 71.4-23.55 73.05-24.53 74.7-25.5 76.9-25.5L76.9-25.5 88.45-25.5 88.45-22.45 77.25-22.45Q75.3-22.45 74.2-21.28 73.1-20.1 73.1-18.6L73.1-18.6Q73.1-17.15 74.2-16 75.3-14.85 77.5-14.85L77.5-14.85 82.5-14.85Q85.2-14.85 87.02-13.95 88.85-13.05 89.77-11.45 90.7-9.85 90.7-7.7L90.7-7.7Q90.7-5.75 89.7-3.98 88.7-2.2 86.97-1.1 85.25 0 82.95 0L82.95 0ZM100.49 0L96.99 0 96.99-25.5 100.49-25.5 100.49 0ZM98.74-30.1L98.74-30.1Q97.74-30.1 96.99-30.85 96.24-31.6 96.24-32.6L96.24-32.6Q96.24-33.65 96.99-34.38 97.74-35.1 98.74-35.1L98.74-35.1Q99.79-35.1 100.52-34.35 101.24-33.6 101.24-32.6L101.24-32.6Q101.24-31.6 100.52-30.85 99.79-30.1 98.74-30.1ZM123.49 0L120.59 0Q116.64 0 113.54-1.7 110.44-3.4 108.64-6.28 106.84-9.15 106.84-12.75L106.84-12.75Q106.84-16.35 108.64-19.23 110.44-22.1 113.54-23.8 116.64-25.5 120.59-25.5L120.59-25.5 123.49-25.5 123.49-22.45 120.34-22.45Q117.59-22.45 115.34-21.18 113.09-19.9 111.74-17.7 110.39-15.5 110.39-12.75L110.39-12.75Q110.39-10 111.74-7.8 113.09-5.6 115.34-4.33 117.59-3.05 120.34-3.05L120.34-3.05 123.49-3.05 123.49 0ZM145.74 0L142.24 0 142.24-36.5 145.74-36.5 145.74-14.35 154.19-14.35 161.14-25.5 165.09-25.5 157.69-13.85Q161.49-12.9 163.59-10 165.69-7.1 165.69-3.1L165.69-3.1 165.69 0 162.24 0 162.24-3.1Q162.24-5.45 161.19-7.3 160.14-9.15 158.31-10.23 156.49-11.3 154.04-11.3L154.04-11.3 145.74-11.3 145.74 0ZM191.98 0L185.73 0Q181.63 0 178.41-1.53 175.18-3.05 173.31-5.9 171.43-8.75 171.43-12.75L171.43-12.75Q171.43-16.45 172.93-19.48 174.43-22.5 177.16-24.3 179.88-26.1 183.53-26.1L183.53-26.1Q187.28-26.1 189.88-24.45 192.48-22.8 193.83-20 195.18-17.2 195.18-13.7L195.18-13.7Q195.18-13.2 195.13-12.6 195.08-12 194.98-11.55L194.98-11.55 175.13-11.55Q175.28-8.75 176.73-6.85 178.18-4.95 180.51-4 182.83-3.05 185.53-3.05L185.53-3.05 191.98-3.05 191.98 0ZM175.13-14.05L175.13-14.05 191.63-14.05Q191.63-15.05 191.43-16.28 191.23-17.5 190.71-18.7 190.18-19.9 189.26-20.9 188.33-21.9 186.91-22.53 185.48-23.15 183.43-23.15L183.43-23.15Q181.53-23.15 179.98-22.35 178.43-21.55 177.38-20.23 176.33-18.9 175.76-17.3 175.18-15.7 175.13-14.05ZM214.88 10.15L211.38 10.15 211.38 0.5Q208.58 0.15 206.33-1.28 204.08-2.7 202.76-5.1 201.43-7.5 201.43-10.65L201.43-10.65 201.43-25.5 204.93-25.5 204.93-10.8Q204.93-8.15 206.11-6.25 207.28-4.35 209.13-3.38 210.98-2.4 213.08-2.4L213.08-2.4Q215.23-2.4 217.11-3.4 218.98-4.4 220.16-6.28 221.33-8.15 221.33-10.8L221.33-10.8 221.33-25.5 224.78-25.5 224.78-10.65Q224.78-7.45 223.46-5.08 222.13-2.7 219.88-1.28 217.63 0.15 214.88 0.45L214.88 0.45 214.88 10.15ZM264.93 0L258.68 0Q254.58 0 251.35-1.53 248.13-3.05 246.25-5.9 244.38-8.75 244.38-12.75L244.38-12.75Q244.38-16.45 245.88-19.48 247.38-22.5 250.1-24.3 252.83-26.1 256.48-26.1L256.48-26.1Q260.23-26.1 262.83-24.45 265.43-22.8 266.78-20 268.13-17.2 268.13-13.7L268.13-13.7Q268.13-13.2 268.08-12.6 268.03-12 267.93-11.55L267.93-11.55 248.08-11.55Q248.23-8.75 249.68-6.85 251.13-4.95 253.45-4 255.78-3.05 258.48-3.05L258.48-3.05 264.93-3.05 264.93 0ZM248.08-14.05L248.08-14.05 264.58-14.05Q264.58-15.05 264.38-16.28 264.18-17.5 263.65-18.7 263.13-19.9 262.2-20.9 261.28-21.9 259.85-22.53 258.43-23.15 256.38-23.15L256.38-23.15Q254.48-23.15 252.93-22.35 251.38-21.55 250.33-20.23 249.28-18.9 248.7-17.3 248.13-15.7 248.08-14.05ZM277.87 0L274.37 0 274.37-36.5 277.87-36.5 277.87 0ZM304.77 0L298.52 0Q294.42 0 291.2-1.53 287.97-3.05 286.1-5.9 284.22-8.75 284.22-12.75L284.22-12.75Q284.22-16.45 285.72-19.48 287.22-22.5 289.95-24.3 292.67-26.1 296.32-26.1L296.32-26.1Q300.07-26.1 302.67-24.45 305.27-22.8 306.62-20 307.97-17.2 307.97-13.7L307.97-13.7Q307.97-13.2 307.92-12.6 307.87-12 307.77-11.55L307.77-11.55 287.92-11.55Q288.07-8.75 289.52-6.85 290.97-4.95 293.3-4 295.62-3.05 298.32-3.05L298.32-3.05 304.77-3.05 304.77 0ZM287.92-14.05L287.92-14.05 304.42-14.05Q304.42-15.05 304.22-16.28 304.02-17.5 303.5-18.7 302.97-19.9 302.05-20.9 301.12-21.9 299.7-22.53 298.27-23.15 296.22-23.15L296.22-23.15Q294.32-23.15 292.77-22.35 291.22-21.55 290.17-20.23 289.12-18.9 288.55-17.3 287.97-15.7 287.92-14.05ZM317.67 0L314.22 0 314.22-15.4Q314.22-18.35 315.54-20.78 316.87-23.2 319.32-24.65 321.77-26.1 325.17-26.1L325.17-26.1Q326.92-26.1 328.74-25.58 330.57-25.05 332.14-23.78 333.72-22.5 334.62-20.25L334.62-20.25 334.67-20.25Q335.57-22.5 337.17-23.78 338.77-25.05 340.62-25.58 342.47-26.1 344.17-26.1L344.17-26.1Q347.62-26.1 350.07-24.65 352.52-23.2 353.82-20.78 355.12-18.35 355.12-15.4L355.12-15.4 355.12 0 351.67 0 351.67-15.4Q351.67-17.65 350.67-19.35 349.67-21.05 347.99-22.08 346.32-23.1 344.17-23.1L344.17-23.1Q341.97-23.1 340.22-22.08 338.47-21.05 337.44-19.3 336.42-17.55 336.42-15.4L336.42-15.4 336.42 0 332.92 0 332.92-15.4Q332.92-17.55 331.87-19.3 330.82-21.05 329.09-22.08 327.37-23.1 325.17-23.1L325.17-23.1Q323.07-23.1 321.34-22.08 319.62-21.05 318.64-19.35 317.67-17.65 317.67-15.4L317.67-15.4 317.67 0ZM382.02 0L375.77 0Q371.67 0 368.44-1.53 365.22-3.05 363.34-5.9 361.47-8.75 361.47-12.75L361.47-12.75Q361.47-16.45 362.97-19.48 364.47-22.5 367.19-24.3 369.92-26.1 373.57-26.1L373.57-26.1Q377.32-26.1 379.92-24.45 382.52-22.8 383.87-20 385.22-17.2 385.22-13.7L385.22-13.7Q385.22-13.2 385.17-12.6 385.12-12 385.02-11.55L385.02-11.55 365.17-11.55Q365.32-8.75 366.77-6.85 368.22-4.95 370.54-4 372.87-3.05 375.57-3.05L375.57-3.05 382.02-3.05 382.02 0ZM365.17-14.05L365.17-14.05 381.67-14.05Q381.67-15.05 381.47-16.28 381.27-17.5 380.74-18.7 380.22-19.9 379.29-20.9 378.37-21.9 376.94-22.53 375.52-23.15 373.47-23.15L373.47-23.15Q371.57-23.15 370.02-22.35 368.47-21.55 367.42-20.23 366.37-18.9 365.79-17.3 365.22-15.7 365.17-14.05ZM394.96 0L391.46 0 391.46-14.85Q391.46-18.35 393.04-20.88 394.61-23.4 397.26-24.78 399.91-26.15 403.11-26.15L403.11-26.15Q406.36-26.15 408.99-24.78 411.61-23.4 413.19-20.88 414.76-18.35 414.76-14.85L414.76-14.85 414.76 0 411.26 0 411.26-14.7Q411.26-17.35 410.11-19.23 408.96-21.1 407.09-22.1 405.21-23.1 403.06-23.1L403.06-23.1Q400.96-23.1 399.11-22.13 397.26-21.15 396.11-19.28 394.96-17.4 394.96-14.7L394.96-14.7 394.96 0ZM436.71 0L431.11 0Q427.71 0 425.79-1.95 423.86-3.9 423.86-7.25L423.86-7.25 423.86-31.9 427.36-31.9 427.36-7.65Q427.36-5.45 428.49-4.25 429.61-3.05 431.81-3.05L431.81-3.05 436.71-3.05 436.71 0ZM436.81-22.45L419.41-22.45 419.41-25.5 436.81-25.5 436.81-22.45ZM460.66 0L457.21 0 457.21-22.45 452.71-22.45 452.71-25.5 457.21-25.5 457.21-29.25Q457.21-32.65 459.13-34.58 461.06-36.5 464.46-36.5L464.46-36.5 470.26-36.5 470.26-33.45 465.11-33.45Q462.96-33.45 461.81-32.25 460.66-31.05 460.66-28.85L460.66-28.85 460.66-25.5 469.31-25.5 469.31-22.45 460.66-22.45 460.66 0ZM483.85 0.65L483.85 0.65Q480 0.65 477-1.13 474-2.9 472.3-5.95 470.6-9 470.6-12.75L470.6-12.75Q470.6-16.5 472.3-19.55 474-22.6 477-24.38 480-26.15 483.85-26.15L483.85-26.15Q487.7-26.15 490.68-24.38 493.65-22.6 495.38-19.55 497.1-16.5 497.1-12.75L497.1-12.75Q497.1-9 495.38-5.95 493.65-2.9 490.68-1.13 487.7 0.65 483.85 0.65ZM483.85-2.4L483.85-2.4Q486.7-2.4 488.9-3.78 491.1-5.15 492.33-7.5 493.55-9.85 493.55-12.75L493.55-12.75Q493.55-15.65 492.33-18 491.1-20.35 488.9-21.73 486.7-23.1 483.85-23.1L483.85-23.1Q480.95-23.1 478.78-21.73 476.6-20.35 475.38-18 474.15-15.65 474.15-12.75L474.15-12.75Q474.15-9.85 475.38-7.5 476.6-5.15 478.78-3.78 480.95-2.4 483.85-2.4ZM506.85 0L503.35 0 503.35-18.25Q503.35-21.65 505.28-23.58 507.2-25.5 510.6-25.5L510.6-25.5 515-25.5 515-22.45 511.3-22.45Q509.1-22.45 507.98-21.25 506.85-20.05 506.85-17.85L506.85-17.85 506.85 0ZM536.19 0L532.75 0 532.75-15.4Q532.75-18.35 534.07-20.78 535.39-23.2 537.85-24.65 540.29-26.1 543.69-26.1L543.69-26.1Q545.44-26.1 547.27-25.58 549.1-25.05 550.67-23.78 552.25-22.5 553.14-20.25L553.14-20.25 553.19-20.25Q554.1-22.5 555.69-23.78 557.29-25.05 559.14-25.58 561-26.1 562.69-26.1L562.69-26.1Q566.14-26.1 568.6-24.65 571.04-23.2 572.35-20.78 573.64-18.35 573.64-15.4L573.64-15.4 573.64 0 570.19 0 570.19-15.4Q570.19-17.65 569.19-19.35 568.19-21.05 566.52-22.08 564.85-23.1 562.69-23.1L562.69-23.1Q560.5-23.1 558.75-22.08 557-21.05 555.97-19.3 554.94-17.55 554.94-15.4L554.94-15.4 554.94 0 551.44 0 551.44-15.4Q551.44-17.55 550.39-19.3 549.35-21.05 547.62-22.08 545.89-23.1 543.69-23.1L543.69-23.1Q541.6-23.1 539.87-22.08 538.14-21.05 537.17-19.35 536.19-17.65 536.19-15.4L536.19-15.4 536.19 0ZM592.24 0.65L592.24 0.65Q588.39 0.65 585.64-1.15 582.89-2.95 581.44-5.98 579.99-9 579.99-12.75L579.99-12.75Q579.99-16.55 581.59-19.58 583.19-22.6 586.17-24.35 589.14-26.1 593.24-26.1L593.24-26.1Q597.19-26.1 600.07-24.35 602.94-22.6 604.52-19.65 606.09-16.7 606.09-13L606.09-13 606.09 0 602.64 0 602.64-5.7 602.49-5.7Q601.79-4.2 600.39-2.73 598.99-1.25 596.97-0.3 594.94 0.65 592.24 0.65ZM592.99-2.35L592.99-2.35Q595.79-2.35 597.94-3.73 600.09-5.1 601.34-7.48 602.59-9.85 602.54-12.85L602.54-12.85Q602.54-15.8 601.39-18.1 600.24-20.4 598.14-21.75 596.04-23.1 593.14-23.1L593.14-23.1Q590.14-23.1 587.99-21.73 585.84-20.35 584.69-17.98 583.54-15.6 583.54-12.6L583.54-12.6Q583.54-9.8 584.64-7.45 585.74-5.1 587.87-3.73 589.99-2.35 592.99-2.35ZM625.84 0L613.24 0 613.24-3.05 625.24-3.05Q626.79-3.05 627.84-3.7 628.89-4.35 629.46-5.4 630.04-6.45 630.04-7.55L630.04-7.55Q630.04-8.65 629.54-9.58 629.04-10.5 628.09-11.1 627.14-11.7 625.69-11.7L625.69-11.7 620.34-11.7Q617.89-11.7 616.11-12.53 614.34-13.35 613.41-14.9 612.49-16.45 612.49-18.5L612.49-18.5Q612.49-20.35 613.39-21.95 614.29-23.55 615.94-24.53 617.59-25.5 619.79-25.5L619.79-25.5 631.34-25.5 631.34-22.45 620.14-22.45Q618.19-22.45 617.09-21.28 615.99-20.1 615.99-18.6L615.99-18.6Q615.99-17.15 617.09-16 618.19-14.85 620.39-14.85L620.39-14.85 625.39-14.85Q628.09-14.85 629.91-13.95 631.74-13.05 632.66-11.45 633.59-9.85 633.59-7.7L633.59-7.7Q633.59-5.75 632.59-3.98 631.59-2.2 629.86-1.1 628.14 0 625.84 0L625.84 0ZM651.94 0L639.34 0 639.34-3.05 651.34-3.05Q652.89-3.05 653.94-3.7 654.99-4.35 655.56-5.4 656.14-6.45 656.14-7.55L656.14-7.55Q656.14-8.65 655.64-9.58 655.14-10.5 654.19-11.1 653.24-11.7 651.79-11.7L651.79-11.7 646.44-11.7Q643.99-11.7 642.21-12.53 640.44-13.35 639.51-14.9 638.59-16.45 638.59-18.5L638.59-18.5Q638.59-20.35 639.49-21.95 640.39-23.55 642.04-24.53 643.69-25.5 645.89-25.5L645.89-25.5 657.44-25.5 657.44-22.45 646.24-22.45Q644.29-22.45 643.19-21.28 642.09-20.1 642.09-18.6L642.09-18.6Q642.09-17.15 643.19-16 644.29-14.85 646.49-14.85L646.49-14.85 651.49-14.85Q654.19-14.85 656.01-13.95 657.84-13.05 658.76-11.45 659.69-9.85 659.69-7.7L659.69-7.7Q659.69-5.75 658.69-3.98 657.69-2.2 655.96-1.1 654.24 0 651.94 0L651.94 0ZM690.13 0.65L690.13 0.65Q686.28 0.65 683.53-1.15 680.78-2.95 679.33-5.98 677.88-9 677.88-12.75L677.88-12.75Q677.88-16.55 679.48-19.58 681.08-22.6 684.06-24.35 687.03-26.1 691.13-26.1L691.13-26.1Q695.08-26.1 697.96-24.35 700.83-22.6 702.41-19.65 703.98-16.7 703.98-13L703.98-13 703.98 0 700.53 0 700.53-5.7 700.38-5.7Q699.68-4.2 698.28-2.73 696.88-1.25 694.86-0.3 692.83 0.65 690.13 0.65ZM690.88-2.35L690.88-2.35Q693.68-2.35 695.83-3.73 697.98-5.1 699.23-7.48 700.48-9.85 700.43-12.85L700.43-12.85Q700.43-15.8 699.28-18.1 698.13-20.4 696.03-21.75 693.93-23.1 691.03-23.1L691.03-23.1Q688.03-23.1 685.88-21.73 683.73-20.35 682.58-17.98 681.43-15.6 681.43-12.6L681.43-12.6Q681.43-9.8 682.53-7.45 683.63-5.1 685.76-3.73 687.88-2.35 690.88-2.35ZM723.28 0.65L723.28 0.65Q726.78 0.65 729.73-0.9 732.68-2.45 734.43-5.45 736.18-8.45 736.18-12.7L736.18-12.7 736.18-36.5 732.68-36.5 732.68-20.25 732.58-20.25Q731.73-21.95 730.23-23.28 728.73-24.6 726.83-25.35 724.93-26.1 722.83-26.1L722.83-26.1Q719.38-26.1 716.55-24.5 713.73-22.9 712.03-19.98 710.33-17.05 710.33-12.95L710.33-12.95Q710.33-9.75 711.33-7.23 712.33-4.7 714.1-2.95 715.88-1.2 718.23-0.28 720.58 0.65 723.28 0.65ZM723.33-2.4L723.33-2.4Q720.78-2.4 718.63-3.63 716.48-4.85 715.18-7.18 713.88-9.5 713.88-12.75L713.88-12.75Q713.88-15.9 715.18-18.23 716.48-20.55 718.6-21.8 720.73-23.05 723.23-23.05L723.23-23.05Q725.73-23.05 727.88-21.83 730.03-20.6 731.33-18.3 732.63-16 732.63-12.7L732.63-12.7Q732.63-9.4 731.35-7.1 730.08-4.8 727.95-3.6 725.83-2.4 723.33-2.4ZM755.68 0.65L755.68 0.65Q751.83 0.65 748.83-1.13 745.83-2.9 744.13-5.95 742.43-9 742.43-12.75L742.43-12.75Q742.43-16.5 744.13-19.55 745.83-22.6 748.83-24.38 751.83-26.15 755.68-26.15L755.68-26.15Q759.53-26.15 762.5-24.38 765.48-22.6 767.2-19.55 768.93-16.5 768.93-12.75L768.93-12.75Q768.93-9 767.2-5.95 765.48-2.9 762.5-1.13 759.53 0.65 755.68 0.65ZM755.68-2.4L755.68-2.4Q758.53-2.4 760.73-3.78 762.93-5.15 764.15-7.5 765.38-9.85 765.38-12.75L765.38-12.75Q765.38-15.65 764.15-18 762.93-20.35 760.73-21.73 758.53-23.1 755.68-23.1L755.68-23.1Q752.78-23.1 750.6-21.73 748.43-20.35 747.2-18 745.98-15.65 745.98-12.75L745.98-12.75Q745.98-9.85 747.2-7.5 748.43-5.15 750.6-3.78 752.78-2.4 755.68-2.4ZM788.07-26.15L788.07-26.15Q784.57-26.15 781.62-24.6 778.67-23.05 776.92-20.05 775.17-17.05 775.17-12.8L775.17-12.8 775.17 11 778.67 11 778.67-5.25 778.77-5.25Q779.62-3.55 781.12-2.23 782.62-0.9 784.52-0.15 786.42 0.6 788.52 0.6L788.52 0.6Q791.97 0.6 794.8-1 797.62-2.6 799.32-5.53 801.02-8.45 801.02-12.55L801.02-12.55Q801.02-15.75 800.02-18.28 799.02-20.8 797.25-22.55 795.47-24.3 793.12-25.23 790.77-26.15 788.07-26.15ZM788.02-23.1L788.02-23.1Q790.57-23.1 792.72-21.88 794.87-20.65 796.17-18.32 797.47-16 797.47-12.75L797.47-12.75Q797.47-9.6 796.17-7.28 794.87-4.95 792.75-3.7 790.62-2.45 788.12-2.45L788.12-2.45Q785.62-2.45 783.47-3.68 781.32-4.9 780.02-7.2 778.72-9.5 778.72-12.8L778.72-12.8Q778.72-16.1 780-18.4 781.27-20.7 783.4-21.9 785.52-23.1 788.02-23.1ZM820.62 0L815.02 0Q811.62 0 809.7-1.95 807.77-3.9 807.77-7.25L807.77-7.25 807.77-31.9 811.27-31.9 811.27-7.65Q811.27-5.45 812.4-4.25 813.52-3.05 815.72-3.05L815.72-3.05 820.62-3.05 820.62 0ZM820.72-22.45L803.32-22.45 803.32-25.5 820.72-25.5 820.72-22.45ZM829.92 0L826.42 0 826.42-25.5 829.92-25.5 829.92 0ZM828.17-30.1L828.17-30.1Q827.17-30.1 826.42-30.85 825.67-31.6 825.67-32.6L825.67-32.6Q825.67-33.65 826.42-34.38 827.17-35.1 828.17-35.1L828.17-35.1Q829.22-35.1 829.94-34.35 830.67-33.6 830.67-32.6L830.67-32.6Q830.67-31.6 829.94-30.85 829.22-30.1 828.17-30.1ZM849.52 0.65L849.52 0.65Q845.67 0.65 842.67-1.13 839.67-2.9 837.97-5.95 836.27-9 836.27-12.75L836.27-12.75Q836.27-16.5 837.97-19.55 839.67-22.6 842.67-24.38 845.67-26.15 849.52-26.15L849.52-26.15Q853.37-26.15 856.34-24.38 859.32-22.6 861.04-19.55 862.77-16.5 862.77-12.75L862.77-12.75Q862.77-9 861.04-5.95 859.32-2.9 856.34-1.13 853.37 0.65 849.52 0.65ZM849.52-2.4L849.52-2.4Q852.37-2.4 854.57-3.78 856.77-5.15 857.99-7.5 859.22-9.85 859.22-12.75L859.22-12.75Q859.22-15.65 857.99-18 856.77-20.35 854.57-21.73 852.37-23.1 849.52-23.1L849.52-23.1Q846.62-23.1 844.44-21.73 842.27-20.35 841.04-18 839.82-15.65 839.82-12.75L839.82-12.75Q839.82-9.85 841.04-7.5 842.27-5.15 844.44-3.78 846.62-2.4 849.52-2.4ZM872.61 0L869.11 0 869.11-14.85Q869.11-18.35 870.69-20.88 872.26-23.4 874.91-24.78 877.56-26.15 880.76-26.15L880.76-26.15Q884.01-26.15 886.64-24.78 889.26-23.4 890.84-20.88 892.41-18.35 892.41-14.85L892.41-14.85 892.41 0 888.91 0 888.91-14.7Q888.91-17.35 887.76-19.23 886.61-21.1 884.74-22.1 882.86-23.1 880.71-23.1L880.71-23.1Q878.61-23.1 876.76-22.13 874.91-21.15 873.76-19.28 872.61-17.4 872.61-14.7L872.61-14.7 872.61 0Z" opacity="1" transform="matrix(1,0,0,1,0,0)" fill="#000000" class="slogan-text-1" data-fill-palette-color="secondary" id="text-1"></path></svg></g></svg></g></svg></g></svg></g><g><svg viewBox="0 0 208.6776294590207 208.6776294590207" height="208.6776294590207" width="208.6776294590207"><g><svg></svg></g><g id="icon-0"><svg viewBox="0 0 208.6776294590207 208.6776294590207" height="208.6776294590207" width="208.6776294590207"><g><path d="M0 104.339c0-57.625 46.714-104.339 104.339-104.339 57.625 0 104.339 46.714 104.339 104.339 0 57.625-46.714 104.339-104.339 104.339-57.625 0-104.339-46.714-104.339-104.339zM104.339 203.363c54.69 0 99.024-44.335 99.024-99.024 0-54.69-44.335-99.024-99.024-99.024-54.69 0-99.024 44.335-99.024 99.024 0 54.69 44.335 99.024 99.024 99.024z" data-fill-palette-color="accent" fill="#000000" stroke="transparent"></path></g><g transform="matrix(1,0,0,1,42.96003641354156,42.96003641354156)"><svg viewBox="0 0 122.75755663193758 122.75755663193758" height="122.75755663193758" width="122.75755663193758"><g><svg xmlns="http://www.w3.org/2000/svg" xmlns:xlink="http://www.w3.org/1999/xlink" version="1.1" baseProfile="tiny" x="0" y="0" viewBox="0 0 100 100" xml:space="preserve" height="122.75755663193758" width="122.75755663193758" class="icon-s-0" data-fill-palette-color="accent" id="s-0"><path d="M100 52.993v-6.004H53.466v-3.947h45.905c0 0-3.666-37.641-41.991-42.47v34.642h31.661c0 0-5.333-14.49-13.331-17.821v11.992H63.546V8.566c0 0 22.161 3.165 29.327 29.313l-39.407-0.232V0h-6.005v37.611L8.058 37.379c0 0 5.331-23.317 29.826-29.812l-0.333 21.818H25.554V17.061c0 0-9.998 4.996-13.997 18.154H43.05V0.739c0 0-37.326 5.496-42.491 42.303h46.902v3.947H0v6.004h47.461v4.537H0.642c5.166 36.806 42.492 42.302 42.492 42.302V65.357H11.64c3.999 13.158 13.997 18.154 13.997 18.154V71.187h11.998l0.333 21.818C13.473 86.51 8.141 63.192 8.141 63.192l39.32-0.231v36.988h6.005V62.925l39.49-0.231c-7.165 26.147-29.327 29.313-29.327 29.313V71.187h12.165v11.991c7.998-3.33 13.33-17.819 13.33-17.819H57.463V100c38.326-4.829 41.992-42.47 41.992-42.47H53.466v-4.537H100z" fill="#000000" data-fill-palette-color="accent"></path></svg></g></svg></g></svg></g></svg></g></svg></g><defs></defs></svg><rect width="395.52" height="130.59057063642214" fill="none" stroke="none" visibility="hidden"></rect></g></svg></g></svg>